# xmcd
#
# Track frame offsets:
#	150
#	13791
#	27935
#	43751
#	60478
#	75718
#	86890
#	99004
#	116903
#	132466
#	146662
#	161733
#	178212
#	189841
#	204397
#
# Disc length: 2935 seconds
#
# Revision: 0
# Processed by: cddbd v1.5.2PL0 Copyright (c) Steve Scherf et al.
# Submitted via: EasyCDDAExtractor 11.1.0.1
#
DISCID=cd0b750f
DTITLE=Lasse Stefanz - Rallarsväng
DYEAR=2008
DGENRE=Dance
TTITLE0=Till Österlen
TTITLE1=Hemmahamn
TTITLE2=En Runda I Baren (Duett Med Plura)
TTITLE3=Innan Allt Är För Sent
TTITLE4=Hållplats 31
TTITLE5=He'll Have To Go
TTITLE6=Kalla Det Drömmar Om Du Vill
TTITLE7=När Skuggorna Faller
TTITLE8=Angel Lee
TTITLE9=Hem Igen
TTITLE10=Slöseri Med Kärlek
TTITLE11=Ensam Weekend
TTITLE12=Mot Lugnare Vatten
TTITLE13=Jag Lever För Livet
TTITLE14=En Runda I Baren (Dansk Duett Med Bamse) (Bonuslåt)
EXTD=
EXTT0=
EXTT1=
EXTT2=
EXTT3=
EXTT4=
EXTT5=
EXTT6=
EXTT7=
EXTT8=
EXTT9=
EXTT10=
EXTT11=
EXTT12=
EXTT13=
EXTT14=
PLAYORDER=
